<?xml version="1.0" encoding="utf-8"?>
<!-- Generator: Adobe Illustrator 26.0.1, SVG Export Plug-In . SVG Version: 6.00 Build 0)  -->
<svg version="1.1" id="Warstwa_1" xmlns="http://www.w3.org/2000/svg" xmlns:xlink="http://www.w3.org/1999/xlink" x="0px" y="0px"
	 viewBox="0 0 1707 836" style="enable-background:new 0 0 1707 836;" xml:space="preserve">
<style type="text/css">
	.st0{fill:#0C111E;}
	.st1{fill:#DFC900;}
	.st2{fill:none;stroke:#004394;stroke-width:13;stroke-miterlimit:10;}
	.st3{fill:#B4006A;}
</style>
<rect x="-2.6" y="2" class="st0" width="1718.6" height="836"/>
<circle class="st1" cx="238.5" cy="512.5" r="19"/>
<circle class="st1" cx="673.4" cy="448.7" r="19"/>
<circle class="st1" cx="1119" cy="512" r="19"/>
<circle class="st1" cx="1537" cy="426" r="19"/>
<line class="st2" x1="444.5" y1="307.5" x2="444.5" y2="836"/>
<line class="st2" x1="887.5" y1="433" x2="887.5" y2="836"/>
<line class="st2" x1="1355.5" y1="365.5" x2="1355.5" y2="841"/>
<line class="st2" x1="23.5" y1="433" x2="23.5" y2="836"/>
<circle class="st3" cx="362.9" cy="512.5" r="13"/>
<circle class="st3" cx="559.4" cy="448.7" r="13"/>
<circle class="st3" cx="786.4" cy="448.7" r="13"/>
<circle class="st3" cx="980" cy="512" r="13"/>
<circle class="st3" cx="1264" cy="512" r="13"/>
<circle class="st3" cx="112.5" cy="512.5" r="13"/>
<circle class="st3" cx="673.4" cy="570.7" r="13"/>
<circle class="st3" cx="673.4" cy="326.7" r="13"/>
<circle class="st3" cx="238.5" cy="382.5" r="13"/>
<circle class="st3" cx="238.5" cy="642.5" r="13"/>
<circle class="st3" cx="1119" cy="365" r="13"/>
<circle class="st3" cx="1119" cy="659" r="13"/>
<circle class="st3" cx="1537" cy="281" r="13"/>
<circle class="st3" cx="1408.9" cy="426" r="13"/>
<circle class="st3" cx="1669.7" cy="426" r="13"/>
<circle class="st3" cx="1537" cy="571" r="13"/>
</svg>
