<?xml version="1.0" encoding="utf-8"?>
<!-- Generator: Adobe Illustrator 26.0.1, SVG Export Plug-In . SVG Version: 6.00 Build 0)  -->
<svg version="1.1" id="Warstwa_1" xmlns="http://www.w3.org/2000/svg" xmlns:xlink="http://www.w3.org/1999/xlink" x="0px" y="0px"
	 viewBox="0 0 435.4 334.3" style="enable-background:new 0 0 435.4 334.3;" xml:space="preserve">
<style type="text/css">
	.st0{fill:#FFFFFF;stroke:#FFFFFF;stroke-miterlimit:10;}
	.st1{fill:#FFFFFF;}
</style>
<path class="st0" d="M423.4,39.6h-407c-6.6,0-12-5.4-12-12V13c0-6.6,5.4-12,12-12h406.9c6.6,0,12,5.4,12,12v14.7
	C435.4,34.2,430,39.6,423.4,39.6z"/>
<path class="st1" d="M421.4,186.3H14.5c-6.6,0-12-5.4-12-12v-14.7c0-6.6,5.4-12,12-12h406.9c6.6,0,12,5.4,12,12v14.7
	C433.4,180.9,428,186.3,421.4,186.3z"/>
<path class="st1" d="M423.4,333h-407c-6.6,0-12-5.4-12-12v-14.7c0-6.6,5.4-12,12-12h406.9c6.6,0,12,5.4,12,12V321
	C435.4,327.6,430,333,423.4,333z"/>
</svg>
