<?xml version="1.0" encoding="utf-8"?>
<!-- Generator: Adobe Illustrator 26.0.1, SVG Export Plug-In . SVG Version: 6.00 Build 0)  -->
<svg version="1.1" id="Warstwa_1" xmlns="http://www.w3.org/2000/svg" xmlns:xlink="http://www.w3.org/1999/xlink" x="0px" y="0px"
	 viewBox="0 0 773.8 774.6" style="enable-background:new 0 0 773.8 774.6;" xml:space="preserve">
<style type="text/css">
	.st0{fill:#FFFFFF;}
</style>
<g>
	<path class="st0" d="M770.7,726.2l-44.5,44.5c-4.7,4.7-12.3,4.7-17,0L3.5,65c-4.7-4.7-4.7-12.3,0-17L48,3.5c4.7-4.7,12.3-4.7,17,0
		l705.7,705.7C775.4,713.9,775.4,721.5,770.7,726.2z"/>
</g>
<g>
	<path class="st0" d="M725.7,3.8l44.5,44.5c4.7,4.7,4.7,12.3,0,17L64.5,771c-4.7,4.7-12.3,4.7-17,0L3,726.5c-4.7-4.7-4.7-12.3,0-17
		L708.7,3.8C713.4-0.9,721-0.9,725.7,3.8z"/>
</g>
</svg>
